<?xml version="1.0" standalone="no"?><!DOCTYPE svg PUBLIC "-//W3C//DTD SVG 1.1//EN" "http://www.w3.org/Graphics/SVG/1.1/DTD/svg11.dtd"><svg t="1731507193024" class="icon" viewBox="0 0 1050 1024" version="1.1" xmlns="http://www.w3.org/2000/svg" p-id="5290" xmlns:xlink="http://www.w3.org/1999/xlink" width="205.078125" height="200"><path d="M663.461063 768.178361c-11.982011-17.322564-20.768819-45.668579-2.259465-156.108486a1627.91024 1627.91024 0 0 0 63.858412-67.80677l1.643248-1.848653 5.272084-29.190461c45.257767-98.41225 185.344592-456.731434-148.987747-508.105732C204.789684-52.988789 208.258762 400.022516 345.310144 535.932755l1.163967 6.481697 1.66607 1.848653a1606.570849 1606.570849 0 0 0 63.881235 67.852416c15.70214 93.938966 11.685314 128.515626 2.464871 147.664021C271.478133 789.061294 36.927417 860.359965 0 1024h1049.852387c-60.069815-149.809371-251.896104-222.180717-386.391324-255.821639z m-243.816806-173.362581a1511.604854 1511.604854 0 0 1-56.828966-60.457804l-17.459502-96.495128c-0.912915-5.568782-1.711716-10.954981-2.556162-16.409649 0.661863-92.090313 13.328561-205.246142 71.595368-206.569869l131.984704 101.58463v-33.115996l73.83201 33.115996-13.442675-61.827176 31.335811 11.046272 11.18321-35.329815-26.839704-68.468634 118.47356 125.617121c0.730332 43.728634-3.606015 93.824851-13.07751 150.243005l-17.482324 96.609243a1531.278175 1531.278175 0 0 1-65.684243 69.290257c-44.002509 43.523228-89.442859 82.436235-108.08915 82.436236-18.646291 0-64.063818-38.913007-108.066327-82.436236-2.989797-2.921328-5.933948-5.86548-8.8781-8.832453z m116.944427 342.343169c-87.206217 0-158.20819-40.624723-158.20819-90.538357 0-16.18142 7.942362-32.225904 22.982638-46.421733l1.98559-1.871476c3.697306-3.286494 7.782601-6.481697 12.164594-9.471495l2.624631-2.670276c6.276291-7.988007 12.643874-16.090129 16.88893-30.44572 6.207823-21.042693 7.759779-55.756291-2.122528-123.175072 38.821715 36.927417 80.975571 71.207379 103.661512 71.207379 22.663118 0 64.816973-34.279963 103.638689-71.207379-11.000627 75.087269-7.759779 109.572637 0.365166 130.13605 4.176587 10.498524 9.631255 17.413856 15.085922 24.352011l1.939945 1.82583c4.541753 3.103911 8.718339 6.367583 12.415646 9.722546l1.757361 1.66607c15.017454 14.173007 22.982638 30.240313 22.982638 46.398911 0.045646 49.867988-70.933505 90.492711-158.162544 90.492711z" fill="currentColor" p-id="5291"></path></svg>